<?xml version="1.0" encoding="UTF-8" ?>
<!DOCTYPE svg PUBLIC "-//W3C//DTD SVG 1.1//EN" "http://www.w3.org/Graphics/SVG/1.1/DTD/svg11.dtd">
<svg width="340pt" height="97pt" viewBox="0 0 340 97" version="1.1" xmlns="http://www.w3.org/2000/svg">
<g id="#0084ffff">
<path fill="#0084ff" opacity="1.00" d=" M 266.42 24.37 C 269.83 21.15 275.86 21.52 278.93 25.05 C 281.00 27.44 282.37 30.33 283.93 33.06 C 286.63 38.05 289.70 42.84 292.15 47.97 C 292.35 48.38 292.74 49.20 292.93 49.62 C 292.11 58.02 292.45 66.46 292.14 74.88 C 291.29 75.06 289.60 75.42 288.76 75.60 C 286.74 73.83 284.74 71.97 283.42 69.60 C 279.68 63.26 276.50 56.57 272.32 50.50 C 267.96 57.52 264.40 65.03 259.94 71.99 C 256.75 77.19 248.33 77.03 245.06 72.00 C 242.62 68.77 243.20 64.36 245.18 61.07 C 250.60 51.23 256.19 41.48 261.54 31.60 C 262.96 29.08 264.26 26.38 266.42 24.37 Z" />
</g>
<g id="#2faca8ff">
<path fill="#2faca8" opacity="1.00" d=" M 298.53 22.70 C 304.42 20.40 311.47 25.64 310.73 31.97 C 310.66 39.14 300.86 43.33 295.67 38.29 C 290.35 34.08 292.23 24.85 298.53 22.70 Z" />
<path fill="#2faca8" opacity="1.00" d=" M 292.15 47.97 C 294.89 45.95 297.46 43.18 301.04 42.83 C 305.09 42.48 308.86 45.25 310.31 48.94 C 310.53 57.70 310.48 66.47 310.19 75.22 C 305.91 75.35 301.63 75.41 297.35 75.46 C 299.14 72.29 301.98 69.01 301.17 65.11 C 299.87 59.29 295.85 54.67 292.93 49.62 C 292.74 49.20 292.35 48.38 292.15 47.97 Z" />
</g>
<g id="#ffffffff">
<path fill="#ffffff" opacity="1.00" d=" M 46.32 23.12 C 54.76 21.15 64.32 23.42 70.44 29.69 C 73.21 32.05 69.64 37.62 66.54 35.47 C 63.91 33.77 61.61 31.45 58.53 30.55 C 51.03 27.79 41.69 30.51 37.35 37.36 C 31.51 46.02 32.51 59.38 41.00 65.98 C 49.13 71.87 61.98 70.18 67.77 61.81 C 71.81 56.21 72.23 49.09 74.62 42.79 C 77.01 36.47 80.55 30.15 86.36 26.38 C 95.88 20.02 109.50 21.49 117.92 29.07 C 128.03 38.03 129.67 54.75 121.57 65.54 C 114.51 75.93 99.45 79.72 88.39 73.63 C 85.27 71.96 81.54 69.83 80.90 66.03 C 81.14 64.28 83.07 62.56 84.89 62.71 C 87.85 64.45 90.29 67.08 93.61 68.18 C 100.14 70.81 108.28 69.32 113.15 64.14 C 117.16 60.24 119.18 54.55 118.93 48.99 C 119.02 42.61 116.50 35.66 110.82 32.23 C 104.03 28.33 94.69 28.41 88.56 33.58 C 80.70 40.42 80.45 51.50 76.55 60.47 C 74.04 65.95 70.11 71.02 64.65 73.78 C 56.49 77.92 46.16 77.44 38.41 72.57 C 31.68 68.31 27.01 60.98 26.14 53.05 C 24.18 39.87 33.27 26.13 46.32 23.12 Z" />
<path fill="#ffffff" opacity="1.00" d=" M 134.68 28.94 C 134.65 26.52 134.76 22.80 138.05 22.94 C 146.04 22.54 154.05 22.89 162.05 22.78 C 172.71 22.22 182.07 34.09 178.21 44.28 C 176.23 50.68 170.26 54.74 163.96 56.15 C 168.68 61.05 173.26 66.10 177.99 70.99 C 181.31 73.84 175.33 78.81 172.89 75.18 C 166.11 68.29 159.24 61.45 152.48 54.52 C 150.25 52.94 151.47 49.13 154.09 48.90 C 159.05 48.06 165.17 50.23 169.10 46.14 C 174.29 41.53 171.96 31.53 164.97 30.23 C 157.25 29.65 149.48 30.19 141.74 30.02 C 141.64 45.00 141.77 59.98 141.68 74.96 C 139.97 75.58 138.17 77.23 136.33 76.05 C 134.41 75.09 134.83 72.79 134.68 71.03 C 134.71 57.00 134.73 42.97 134.68 28.94 Z" />
<path fill="#ffffff" opacity="1.00" d=" M 191.59 31.58 C 198.78 24.06 210.79 21.07 220.40 25.45 C 231.17 29.95 237.97 42.03 236.43 53.55 C 235.48 56.57 231.52 55.89 229.05 56.06 C 220.16 55.73 211.20 56.54 202.36 55.66 C 198.52 54.87 199.34 48.98 203.05 48.79 C 211.94 48.41 220.86 48.76 229.76 48.67 C 228.57 43.00 226.16 37.20 221.13 33.92 C 214.28 28.94 204.48 29.91 198.00 35.05 C 189.61 42.16 188.83 56.48 196.83 64.17 C 202.45 70.07 211.49 70.81 219.00 68.82 C 223.91 67.78 227.83 64.39 232.57 62.90 C 233.55 64.87 235.80 67.39 233.41 69.27 C 224.31 77.06 210.65 79.30 199.61 74.56 C 189.48 69.96 182.96 58.54 184.23 47.46 C 184.96 41.57 187.69 36.02 191.59 31.58 Z" />
</g>
<g id="#0057a7ff">
<path fill="#0057a7" opacity="1.00" d=" M 310.31 48.94 C 311.11 57.84 310.47 66.79 310.72 75.72 C 303.40 75.57 296.07 75.91 288.76 75.60 C 289.60 75.42 291.29 75.06 292.14 74.88 C 292.45 66.46 292.11 58.02 292.93 49.62 C 295.85 54.67 299.87 59.29 301.17 65.11 C 301.98 69.01 299.14 72.29 297.35 75.46 C 301.63 75.41 305.91 75.35 310.19 75.22 C 310.48 66.47 310.53 57.70 310.31 48.94 Z" />
</g>
</svg>
